<svg width="1624" height="1020" viewBox="0 0 1624 1020" fill="none" xmlns="http://www.w3.org/2000/svg">
<g clip-path="url(#clip0_310_6760)">
<rect width="1624" height="1020" fill="white"/>
<rect width="1624" height="1020" fill="#25476A"/>
<path fill-rule="evenodd" clip-rule="evenodd" d="M556.164 838.386C546.603 827.092 530.076 826.234 519.502 836.484L507.376 848.237L502 842.121L514.126 830.368C527.96 816.959 549.58 818.081 562.088 832.856L563.133 834.091C572.806 845.518 589.809 845.518 599.482 834.091C612.308 818.94 634.853 818.94 647.679 834.091C657.351 845.518 674.354 845.518 684.027 834.091C696.853 818.94 719.398 818.94 732.224 834.091C741.897 845.518 758.9 845.518 768.573 834.091C781.399 818.94 803.944 818.94 816.77 834.091C826.443 845.518 843.445 845.518 853.118 834.091C865.944 818.94 888.489 818.94 901.315 834.091C910.988 845.518 927.991 845.518 937.664 834.091C950.49 818.94 973.035 818.94 985.861 834.091C995.534 845.518 1012.54 845.518 1022.21 834.091C1035.07 818.895 1057.82 819.223 1070.61 834.329C1080.28 845.757 1097.32 846.237 1107.32 835.28L1116.1 825.654L1121.83 831.413L1113.04 841.039C1099.76 855.586 1077.36 854.832 1064.68 839.858C1054.97 828.386 1037.77 828.239 1028.13 839.621C1015.31 854.772 992.762 854.772 979.937 839.621C970.264 828.194 953.261 828.194 943.588 839.621C930.762 854.772 908.217 854.772 895.391 839.621C885.718 828.194 868.715 828.194 859.042 839.621C846.217 854.772 823.671 854.772 810.846 839.621C801.173 828.194 784.17 828.194 774.497 839.621C761.671 854.772 739.126 854.772 726.3 839.621C716.627 828.194 699.624 828.194 689.951 839.621C677.126 854.772 654.58 854.772 641.755 839.621C632.082 828.194 615.079 828.194 605.406 839.621C592.58 854.772 570.035 854.772 557.209 839.621L556.164 838.386Z" fill="white" stroke="white" stroke-width="14.3401"/>
</g>
<defs>
<clipPath id="clip0_310_6760">
<rect width="1624" height="1020" fill="white"/>
</clipPath>
</defs>
</svg>
