<svg width="1624" height="1020" viewBox="0 0 1624 1020" fill="none" xmlns="http://www.w3.org/2000/svg">
<g clip-path="url(#clip0_327_6855)">
<rect width="1624" height="1020" fill="white"/>
<rect width="1624" height="1020" fill="#25476A"/>
<path fill-rule="evenodd" clip-rule="evenodd" d="M556.164 838.386C546.603 827.092 530.076 826.234 519.502 836.484L507.376 848.237L502 842.121L514.126 830.368C527.96 816.959 549.58 818.081 562.088 832.856L563.133 834.091C572.806 845.518 589.809 845.518 599.482 834.091C612.308 818.94 634.853 818.94 647.679 834.091C657.351 845.518 674.354 845.518 684.027 834.091C696.853 818.94 719.398 818.94 732.224 834.091C741.897 845.518 758.9 845.518 768.573 834.091C781.399 818.94 803.944 818.94 816.77 834.091C826.443 845.518 843.445 845.518 853.118 834.091C865.944 818.94 888.489 818.94 901.315 834.091C910.988 845.518 927.991 845.518 937.664 834.091C950.49 818.94 973.035 818.94 985.861 834.091C995.534 845.518 1012.54 845.518 1022.21 834.091C1035.07 818.895 1057.82 819.223 1070.61 834.329C1080.28 845.757 1097.32 846.237 1107.32 835.28L1116.1 825.654L1121.83 831.413L1113.04 841.039C1099.76 855.586 1077.36 854.832 1064.68 839.858C1054.97 828.386 1037.77 828.239 1028.13 839.621C1015.31 854.772 992.762 854.772 979.937 839.621C970.264 828.194 953.261 828.194 943.588 839.621C930.762 854.772 908.217 854.772 895.391 839.621C885.718 828.194 868.715 828.194 859.042 839.621C846.217 854.772 823.671 854.772 810.846 839.621C801.173 828.194 784.17 828.194 774.497 839.621C761.671 854.772 739.126 854.772 726.3 839.621C716.627 828.194 699.624 828.194 689.951 839.621C677.126 854.772 654.58 854.772 641.755 839.621C632.082 828.194 615.079 828.194 605.406 839.621C592.58 854.772 570.035 854.772 557.209 839.621L556.164 838.386Z" fill="white" stroke="white" stroke-width="14.3401"/>
<path d="M114.047 167.035V142.599H136.59C140.949 142.599 144.678 141.739 147.775 140.018C150.987 138.297 153.454 135.888 155.175 132.791C156.896 129.578 157.756 125.907 157.756 121.777C157.756 117.418 156.896 113.69 155.175 110.592C153.454 107.38 150.987 104.971 147.775 103.365C144.678 101.644 140.949 100.784 136.59 100.784H114.047V76.3479H135.213C145.882 76.3479 155.003 78.1261 162.574 81.6824C170.261 85.2388 176.111 90.2865 180.127 96.8256C184.256 103.365 186.321 111.223 186.321 120.401V123.154C186.321 132.102 184.256 139.903 180.127 146.557C176.111 153.096 170.261 158.144 162.574 161.7C155.003 165.257 145.882 167.035 135.213 167.035H114.047ZM89.2674 203V76.3479H117.489V203H89.2674ZM279.76 203V76.3479H307.982V203H279.76ZM355.993 203L319.167 148.966H350.142L388.688 203H355.993ZM300.41 162.733V140.534H331.385C335.515 140.534 339.071 139.731 342.054 138.125C345.151 136.404 347.503 134.053 349.109 131.07C350.83 127.972 351.691 124.416 351.691 120.401C351.691 116.386 350.83 112.887 349.109 109.904C347.503 106.806 345.151 104.455 342.054 102.848C339.071 101.128 335.515 100.267 331.385 100.267H300.41V76.3479H329.148C339.588 76.3479 348.65 77.954 356.337 81.1662C364.023 84.2637 369.931 88.9099 374.061 95.1048C378.191 101.3 380.256 109.101 380.256 118.508V121.261C380.256 130.554 378.134 138.297 373.889 144.492C369.759 150.572 363.851 155.161 356.165 158.259C348.593 161.242 339.588 162.733 329.148 162.733H300.41ZM539.893 206.27C528.535 206.27 518.612 204.319 510.123 200.419C501.748 196.404 494.807 191.184 489.301 184.759C483.794 178.22 479.664 171.165 476.911 163.593C474.272 156.022 472.953 148.737 472.953 141.739V137.953C472.953 130.152 474.33 122.466 477.083 114.894C479.951 107.208 484.196 100.267 489.817 94.0723C495.438 87.8774 502.436 82.9444 510.811 79.2733C519.186 75.4875 528.88 73.5946 539.893 73.5946C550.906 73.5946 560.6 75.4875 568.975 79.2733C577.349 82.9444 584.347 87.8774 589.969 94.0723C595.59 100.267 599.835 107.208 602.703 114.894C605.571 122.466 607.005 130.152 607.005 137.953V141.739C607.005 148.737 605.628 156.022 602.875 163.593C600.121 171.165 595.991 178.22 590.485 184.759C584.978 191.184 577.98 196.404 569.491 200.419C561.116 204.319 551.25 206.27 539.893 206.27ZM539.893 179.941C545.858 179.941 551.193 178.909 555.896 176.844C560.715 174.779 564.787 171.911 568.114 168.24C571.556 164.568 574.137 160.324 575.858 155.505C577.579 150.687 578.439 145.525 578.439 140.018C578.439 134.167 577.521 128.833 575.686 124.015C573.965 119.082 571.384 114.837 567.942 111.28C564.615 107.609 560.6 104.799 555.896 102.848C551.193 100.898 545.858 99.9231 539.893 99.9231C533.927 99.9231 528.593 100.898 523.889 102.848C519.186 104.799 515.113 107.609 511.671 111.28C508.344 114.837 505.821 119.082 504.1 124.015C502.379 128.833 501.519 134.167 501.519 140.018C501.519 145.525 502.379 150.687 504.1 155.505C505.821 160.324 508.344 164.568 511.671 168.24C515.113 171.911 519.186 174.779 523.889 176.844C528.593 178.909 533.927 179.941 539.893 179.941ZM742.133 206.27C732.611 206.27 724.351 204.491 717.353 200.935C710.47 197.264 705.135 191.987 701.35 185.104C697.679 178.22 695.843 169.846 695.843 159.98V153.613H723.72V161.528C723.72 167.035 725.326 171.509 728.539 174.951C731.866 178.278 736.397 179.941 742.133 179.941C747.754 179.941 752.171 178.278 755.383 174.951C758.71 171.509 760.374 167.035 760.374 161.528V98.5464H788.595V159.98C788.595 169.846 786.702 178.22 782.916 185.104C779.245 191.987 773.911 197.264 766.913 200.935C760.03 204.491 751.77 206.27 742.133 206.27ZM710.47 101.988V77.3804H788.595V101.988H710.47ZM890.395 203V77.3804H917.928V203H890.395ZM914.486 203V179.597H969.38V203H914.486ZM914.486 150.859V127.456H965.422V150.859H914.486ZM914.486 100.784V77.3804H968.176V100.784H914.486ZM1124.59 206.27C1113.23 206.27 1103.48 204.319 1095.33 200.419C1087.19 196.404 1080.53 191.184 1075.37 184.759C1070.21 178.22 1066.37 171.222 1063.84 163.765C1061.43 156.194 1060.23 148.852 1060.23 141.739V137.953C1060.23 130.152 1061.49 122.466 1064.01 114.894C1066.54 107.208 1070.38 100.267 1075.54 94.0723C1080.82 87.8774 1087.42 82.9444 1095.33 79.2733C1103.36 75.4875 1112.83 73.5946 1123.73 73.5946C1135.08 73.5946 1145.12 75.7169 1153.84 79.9616C1162.56 84.2063 1169.5 90.1144 1174.66 97.686C1179.94 105.143 1183.04 113.919 1183.96 124.015H1155.56C1154.76 118.967 1152.92 114.665 1150.06 111.108C1147.19 107.552 1143.46 104.799 1138.87 102.848C1134.4 100.898 1129.35 99.9231 1123.73 99.9231C1118.11 99.9231 1113.12 100.898 1108.76 102.848C1104.4 104.799 1100.73 107.552 1097.74 111.108C1094.87 114.665 1092.64 118.909 1091.03 123.842C1089.54 128.661 1088.79 134.053 1088.79 140.018C1088.79 145.869 1089.54 151.261 1091.03 156.194C1092.64 161.012 1094.93 165.257 1097.91 168.928C1101.01 172.484 1104.8 175.237 1109.27 177.188C1113.75 179.023 1118.85 179.941 1124.59 179.941C1133.31 179.941 1140.65 177.819 1146.61 173.574C1152.69 169.329 1156.36 163.479 1157.63 156.022H1185.85C1184.82 165.199 1181.72 173.631 1176.56 181.318C1171.51 188.889 1164.57 194.97 1155.73 199.558C1147.02 204.032 1136.63 206.27 1124.59 206.27ZM1304.06 203V98.5464H1332.28V203H1304.06ZM1268.79 101.988V77.3804H1367.73V101.988H1268.79ZM1501.89 206.27C1490.53 206.27 1480.95 204.491 1473.15 200.935C1465.35 197.264 1459.44 192.331 1455.42 186.136C1451.41 179.826 1449.4 172.599 1449.4 164.454H1476.76C1476.76 167.666 1477.62 170.649 1479.34 173.402C1481.18 176.155 1483.93 178.392 1487.6 180.113C1491.27 181.719 1496.03 182.522 1501.89 182.522C1507.16 182.522 1511.58 181.834 1515.14 180.457C1518.69 179.081 1521.39 177.188 1523.22 174.779C1525.06 172.255 1525.98 169.387 1525.98 166.175C1525.98 162.159 1524.26 159.004 1520.81 156.71C1517.37 154.301 1511.81 152.752 1504.12 152.064L1494.66 151.203C1482.15 150.171 1472.17 146.27 1464.72 139.502C1457.26 132.733 1453.53 123.785 1453.53 112.657C1453.53 104.627 1455.42 97.686 1459.21 91.8353C1463.11 85.9845 1468.5 81.5104 1475.39 78.4129C1482.27 75.2007 1490.41 73.5946 1499.82 73.5946C1509.69 73.5946 1518.12 75.3154 1525.12 78.757C1532.23 82.084 1537.68 86.8449 1541.46 93.0398C1545.25 99.12 1547.14 106.29 1547.14 114.55H1519.61C1519.61 111.453 1518.86 108.642 1517.37 106.118C1515.88 103.479 1513.64 101.357 1510.66 99.751C1507.79 98.1449 1504.18 97.3419 1499.82 97.3419C1495.69 97.3419 1492.19 98.0302 1489.32 99.4068C1486.57 100.784 1484.51 102.676 1483.13 105.086C1481.75 107.38 1481.06 109.904 1481.06 112.657C1481.06 116.213 1482.33 119.311 1484.85 121.95C1487.37 124.588 1491.5 126.137 1497.24 126.596L1506.88 127.456C1516.05 128.259 1524.14 130.267 1531.14 133.479C1538.14 136.576 1543.59 140.879 1547.49 146.385C1551.5 151.777 1553.51 158.373 1553.51 166.175C1553.51 174.205 1551.39 181.26 1547.14 187.341C1543.01 193.306 1537.1 197.952 1529.42 201.279C1521.73 204.606 1512.55 206.27 1501.89 206.27Z" fill="white"/>
</g>
<defs>
<clipPath id="clip0_327_6855">
<rect width="1624" height="1020" fill="white"/>
</clipPath>
</defs>
</svg>
