<svg width="1624" height="1020" viewBox="0 0 1624 1020" fill="none" xmlns="http://www.w3.org/2000/svg">
<g clip-path="url(#clip0_310_6393)">
<rect width="1624" height="1020" fill="white"/>
<rect width="1624" height="1020" fill="#25476A"/>
<path d="M83.1107 203V77.3804H110.644V203H83.1107ZM107.202 203V179.597H162.096V203H107.202ZM107.202 150.859V127.456H158.138V150.859H107.202ZM107.202 100.784V77.3804H160.892V100.784H107.202ZM187.005 203V77.3804H215.226V203H187.005ZM211.785 203V178.22H264.442V203H211.785ZM285.026 203V77.3804H313.247V203H285.026ZM343.539 203V77.3804H389.829L437.151 180.113H443.002L439.56 183.211V77.3804H466.061V203H419.427L372.104 100.267H366.254L369.695 97.1698V203H343.539ZM591.498 206.27C580.14 206.27 570.389 204.319 562.244 200.419C554.099 196.404 547.445 191.184 542.282 184.759C537.12 178.22 533.277 171.222 530.753 163.765C528.344 156.194 527.139 148.852 527.139 141.739V137.953C527.139 130.152 528.401 122.466 530.925 114.894C533.449 107.208 537.292 100.267 542.454 94.0723C547.732 87.8774 554.328 82.9444 562.244 79.2733C570.274 75.4875 579.739 73.5946 590.637 73.5946C601.995 73.5946 612.033 75.7169 620.752 79.9616C629.47 84.2063 636.411 90.1144 641.573 97.686C646.851 105.143 649.948 113.919 650.866 124.015H622.472C621.669 118.967 619.834 114.665 616.966 111.108C614.098 107.552 610.369 104.799 605.78 102.848C601.306 100.898 596.259 99.9231 590.637 99.9231C585.016 99.9231 580.026 100.898 575.666 102.848C571.307 104.799 567.636 107.552 564.653 111.108C561.785 114.665 559.548 118.909 557.942 123.842C556.45 128.661 555.705 134.053 555.705 140.018C555.705 145.869 556.45 151.261 557.942 156.194C559.548 161.012 561.842 165.257 564.825 168.928C567.922 172.484 571.708 175.237 576.182 177.188C580.656 179.023 585.762 179.941 591.498 179.941C600.216 179.941 607.559 177.819 613.524 173.574C619.604 169.329 623.275 163.479 624.537 156.022H652.759C651.726 165.199 648.629 173.631 643.466 181.318C638.419 188.889 631.478 194.97 622.644 199.558C613.926 204.032 603.543 206.27 591.498 206.27ZM659.985 203L701.456 77.3804H747.058L790.079 203H760.825L726.064 96.8256L735.012 100.439H712.814L722.106 96.8256L688.206 203H659.985ZM691.476 171.853L700.08 148.45H749.295L758.071 171.853H691.476ZM808.186 203V76.3479H836.407V203H808.186ZM884.418 203L847.593 148.966H878.567L917.114 203H884.418ZM828.836 162.733V140.534H859.811C863.941 140.534 867.497 139.731 870.48 138.125C873.577 136.404 875.929 134.053 877.535 131.07C879.256 127.972 880.116 124.416 880.116 120.401C880.116 116.386 879.256 112.887 877.535 109.904C875.929 106.806 873.577 104.455 870.48 102.848C867.497 101.128 863.941 100.267 859.811 100.267H828.836V76.3479H857.574C868.013 76.3479 877.076 77.954 884.762 81.1662C892.449 84.2637 898.357 88.9099 902.487 95.1048C906.617 101.3 908.682 109.101 908.682 118.508V121.261C908.682 130.554 906.559 138.297 902.315 144.492C898.185 150.572 892.277 155.161 884.59 158.259C877.019 161.242 868.013 162.733 857.574 162.733H828.836ZM935.607 203V77.3804H963.829V203H935.607ZM960.387 203V178.22H1013.04V203H960.387ZM1075.65 206.27C1064.29 206.27 1054.71 204.491 1046.91 200.935C1039.11 197.264 1033.2 192.331 1029.19 186.136C1025.17 179.826 1023.16 172.599 1023.16 164.454H1050.52C1050.52 167.666 1051.38 170.649 1053.11 173.402C1054.94 176.155 1057.69 178.392 1061.37 180.113C1065.04 181.719 1069.8 182.522 1075.65 182.522C1080.93 182.522 1085.34 181.834 1088.9 180.457C1092.45 179.081 1095.15 177.188 1096.99 174.779C1098.82 172.255 1099.74 169.387 1099.74 166.175C1099.74 162.159 1098.02 159.004 1094.58 156.71C1091.14 154.301 1085.57 152.752 1077.89 152.064L1068.42 151.203C1055.92 150.171 1045.94 146.27 1038.48 139.502C1031.02 132.733 1027.29 123.785 1027.29 112.657C1027.29 104.627 1029.19 97.686 1032.97 91.8353C1036.87 85.9845 1042.26 81.5104 1049.15 78.4129C1056.03 75.2007 1064.18 73.5946 1073.58 73.5946C1083.45 73.5946 1091.88 75.3154 1098.88 78.757C1105.99 82.084 1111.44 86.8449 1115.23 93.0398C1119.01 99.12 1120.91 106.29 1120.91 114.55H1093.37C1093.37 111.453 1092.63 108.642 1091.14 106.118C1089.64 103.479 1087.41 101.357 1084.42 99.751C1081.56 98.1449 1077.94 97.3419 1073.58 97.3419C1069.45 97.3419 1065.95 98.0302 1063.09 99.4068C1060.33 100.784 1058.27 102.676 1056.89 105.086C1055.51 107.38 1054.83 109.904 1054.83 112.657C1054.83 116.213 1056.09 119.311 1058.61 121.95C1061.14 124.588 1065.27 126.137 1071 126.596L1080.64 127.456C1089.82 128.259 1097.9 130.267 1104.9 133.479C1111.9 136.576 1117.35 140.879 1121.25 146.385C1125.26 151.777 1127.27 158.373 1127.27 166.175C1127.27 174.205 1125.15 181.26 1120.91 187.341C1116.78 193.306 1110.87 197.952 1103.18 201.279C1095.49 204.606 1086.32 206.27 1075.65 206.27ZM1192.15 206.27C1180.79 206.27 1171.21 204.491 1163.41 200.935C1155.61 197.264 1149.7 192.331 1145.68 186.136C1141.67 179.826 1139.66 172.599 1139.66 164.454H1167.02C1167.02 167.666 1167.88 170.649 1169.6 173.402C1171.44 176.155 1174.19 178.392 1177.86 180.113C1181.53 181.719 1186.3 182.522 1192.15 182.522C1197.42 182.522 1201.84 181.834 1205.4 180.457C1208.95 179.081 1211.65 177.188 1213.48 174.779C1215.32 172.255 1216.24 169.387 1216.24 166.175C1216.24 162.159 1214.52 159.004 1211.07 156.71C1207.63 154.301 1202.07 152.752 1194.38 152.064L1184.92 151.203C1172.41 150.171 1162.43 146.27 1154.98 139.502C1147.52 132.733 1143.79 123.785 1143.79 112.657C1143.79 104.627 1145.68 97.686 1149.47 91.8353C1153.37 85.9845 1158.76 81.5104 1165.65 78.4129C1172.53 75.2007 1180.67 73.5946 1190.08 73.5946C1199.95 73.5946 1208.38 75.3154 1215.38 78.757C1222.49 82.084 1227.94 86.8449 1231.72 93.0398C1235.51 99.12 1237.4 106.29 1237.4 114.55H1209.87C1209.87 111.453 1209.12 108.642 1207.63 106.118C1206.14 103.479 1203.9 101.357 1200.92 99.751C1198.05 98.1449 1194.44 97.3419 1190.08 97.3419C1185.95 97.3419 1182.45 98.0302 1179.58 99.4068C1176.83 100.784 1174.77 102.676 1173.39 105.086C1172.01 107.38 1171.32 109.904 1171.32 112.657C1171.32 116.213 1172.59 119.311 1175.11 121.95C1177.63 124.588 1181.76 126.137 1187.5 126.596L1197.14 127.456C1206.31 128.259 1214.4 130.267 1221.4 133.479C1228.4 136.576 1233.85 140.879 1237.75 146.385C1241.76 151.777 1243.77 158.373 1243.77 166.175C1243.77 174.205 1241.65 181.26 1237.4 187.341C1233.27 193.306 1227.37 197.952 1219.68 201.279C1211.99 204.606 1202.81 206.27 1192.15 206.27ZM1325.16 206.27C1313.81 206.27 1303.88 204.319 1295.39 200.419C1287.02 196.404 1280.08 191.184 1274.57 184.759C1269.06 178.22 1264.94 171.165 1262.18 163.593C1259.54 156.022 1258.22 148.737 1258.22 141.739V137.953C1258.22 130.152 1259.6 122.466 1262.35 114.894C1265.22 107.208 1269.47 100.267 1275.09 94.0723C1280.71 87.8774 1287.71 82.9444 1296.08 79.2733C1304.46 75.4875 1314.15 73.5946 1325.16 73.5946C1336.18 73.5946 1345.87 75.4875 1354.25 79.2733C1362.62 82.9444 1369.62 87.8774 1375.24 94.0723C1380.86 100.267 1385.11 107.208 1387.97 114.894C1390.84 122.466 1392.28 130.152 1392.28 137.953V141.739C1392.28 148.737 1390.9 156.022 1388.15 163.593C1385.39 171.165 1381.26 178.22 1375.76 184.759C1370.25 191.184 1363.25 196.404 1354.76 200.419C1346.39 204.319 1336.52 206.27 1325.16 206.27ZM1325.16 179.941C1331.13 179.941 1336.46 178.909 1341.17 176.844C1345.99 174.779 1350.06 171.911 1353.38 168.24C1356.83 164.568 1359.41 160.324 1361.13 155.505C1362.85 150.687 1363.71 145.525 1363.71 140.018C1363.71 134.167 1362.79 128.833 1360.96 124.015C1359.24 119.082 1356.65 114.837 1353.21 111.28C1349.89 107.609 1345.87 104.799 1341.17 102.848C1336.46 100.898 1331.13 99.9231 1325.16 99.9231C1319.2 99.9231 1313.86 100.898 1309.16 102.848C1304.46 104.799 1300.38 107.609 1296.94 111.28C1293.62 114.837 1291.09 119.082 1289.37 124.015C1287.65 128.833 1286.79 134.167 1286.79 140.018C1286.79 145.525 1287.65 150.687 1289.37 155.505C1291.09 160.324 1293.62 164.568 1296.94 168.24C1300.38 171.911 1304.46 174.779 1309.16 176.844C1313.86 178.909 1319.2 179.941 1325.16 179.941ZM1415.38 203V77.3804H1461.67L1508.99 180.113H1514.84L1511.4 183.211V77.3804H1537.9V203H1491.27L1443.94 100.267H1438.09L1441.54 97.1698V203H1415.38ZM135.768 392.27C123.951 392.27 113.913 390.09 105.653 385.73C97.5082 381.256 91.3133 374.947 87.0686 366.801C82.8239 358.656 80.7016 349.02 80.7016 337.892V263.38H108.923V338.924C108.923 344.431 109.955 349.249 112.02 353.379C114.2 357.394 117.24 360.492 121.141 362.672C125.156 364.851 130.032 365.941 135.768 365.941C141.618 365.941 146.494 364.851 150.395 362.672C154.41 360.492 157.45 357.394 159.515 353.379C161.58 349.364 162.612 344.546 162.612 338.924V263.38H190.834V337.892C190.834 349.02 188.711 358.656 184.467 366.801C180.222 374.947 174.027 381.256 165.882 385.73C157.737 390.09 147.699 392.27 135.768 392.27ZM204.356 389L247.204 322.06L247.548 324.986L207.969 263.38H238.944L263.38 302.615H267.338L291.429 263.38H321.543L281.792 325.33L281.276 322.576L325.501 389H294.354L265.789 344.603H261.659L234.47 389H204.356ZM1101.57 389V263.38H1129.79V389H1101.57ZM1126.34 389V364.22H1179V389H1126.34ZM1199.24 389V263.38H1226.77V389H1199.24ZM1223.33 389V365.597H1278.23V389H1223.33ZM1223.33 336.859V313.456H1274.27V336.859H1223.33ZM1223.33 286.784V263.38H1277.02V286.784H1223.33ZM1291.26 389L1332.73 263.38H1378.34L1421.36 389H1392.1L1357.34 282.826L1366.29 286.439H1344.09L1353.38 282.826L1319.48 389H1291.26ZM1322.75 357.853L1331.36 334.45H1380.57L1389.35 357.853H1322.75ZM1464.24 389.688V363.36H1487.65C1493.5 363.36 1498.77 362.499 1503.48 360.779C1508.18 358.943 1512.2 356.419 1515.52 353.207C1518.85 349.88 1521.37 345.922 1523.1 341.333C1524.82 336.63 1525.68 331.467 1525.68 325.846C1525.68 319.995 1524.82 314.775 1523.1 310.187C1521.37 305.598 1518.85 301.697 1515.52 298.485C1512.2 295.273 1508.18 292.864 1503.48 291.258C1498.77 289.537 1493.5 288.676 1487.65 288.676H1464.24V262.348H1486.1C1497.45 262.348 1507.38 264.011 1515.87 267.338C1524.36 270.665 1531.47 275.197 1537.21 280.933C1542.94 286.669 1547.19 293.265 1549.94 300.722C1552.81 308.064 1554.24 315.808 1554.24 323.953V327.739C1554.24 335.311 1552.81 342.825 1549.94 350.282C1547.19 357.624 1542.94 364.278 1537.21 370.243C1531.47 376.094 1524.36 380.797 1515.87 384.354C1507.38 387.91 1497.45 389.688 1486.1 389.688H1464.24ZM1439.46 389.688V262.348H1467.68V389.688H1439.46ZM107.89 540.035V515.599H130.433C134.793 515.599 138.521 514.739 141.618 513.018C144.831 511.297 147.297 508.888 149.018 505.791C150.739 502.578 151.599 498.907 151.599 494.777C151.599 490.418 150.739 486.69 149.018 483.592C147.297 480.38 144.831 477.971 141.618 476.365C138.521 474.644 134.793 473.784 130.433 473.784H107.89V449.348H129.056C139.726 449.348 148.846 451.126 156.417 454.682C164.104 458.239 169.955 463.287 173.97 469.826C178.1 476.365 180.165 484.223 180.165 493.401V496.154C180.165 505.102 178.1 512.903 173.97 519.557C169.955 526.096 164.104 531.144 156.417 534.7C148.846 538.257 139.726 540.035 129.056 540.035H107.89ZM83.1107 576V449.348H111.332V576H83.1107ZM313.182 579.27C301.825 579.27 291.902 577.319 283.412 573.419C275.038 569.404 268.097 564.184 262.59 557.759C257.084 551.22 252.954 544.165 250.201 536.593C247.562 529.022 246.243 521.737 246.243 514.739V510.953C246.243 503.152 247.619 495.466 250.373 487.894C253.241 480.208 257.485 473.267 263.107 467.072C268.728 460.877 275.726 455.944 284.101 452.273C292.475 448.488 302.169 446.595 313.182 446.595C324.196 446.595 333.89 448.488 342.264 452.273C350.639 455.944 357.637 460.877 363.258 467.072C368.88 473.267 373.124 480.208 375.992 487.894C378.86 495.466 380.294 503.152 380.294 510.953V514.739C380.294 521.737 378.918 529.022 376.164 536.593C373.411 544.165 369.281 551.22 363.774 557.759C358.268 564.184 351.27 569.404 342.781 573.419C334.406 577.319 324.54 579.27 313.182 579.27ZM313.182 552.941C319.148 552.941 324.483 551.909 329.186 549.844C334.004 547.779 338.077 544.911 341.404 541.24C344.846 537.568 347.427 533.324 349.148 528.505C350.868 523.687 351.729 518.525 351.729 513.018C351.729 507.167 350.811 501.833 348.975 497.015C347.255 492.082 344.673 487.837 341.232 484.28C337.905 480.609 333.89 477.799 329.186 475.848C324.483 473.898 319.148 472.923 313.182 472.923C307.217 472.923 301.882 473.898 297.179 475.848C292.475 477.799 288.403 480.609 284.961 484.28C281.634 487.837 279.11 492.082 277.39 497.015C275.669 501.833 274.808 507.167 274.808 513.018C274.808 518.525 275.669 523.687 277.39 528.505C279.11 533.324 281.634 537.568 284.961 541.24C288.403 544.911 292.475 547.779 297.179 549.844C301.882 551.909 307.217 552.941 313.182 552.941ZM456.743 576V449.348H484.964V576H456.743ZM532.975 576L496.15 521.966H527.124L565.671 576H532.975ZM477.393 535.733V513.534H508.367C512.497 513.534 516.054 512.731 519.037 511.125C522.134 509.404 524.486 507.053 526.092 504.07C527.813 500.972 528.673 497.416 528.673 493.401C528.673 489.386 527.813 485.887 526.092 482.904C524.486 479.806 522.134 477.455 519.037 475.848C516.054 474.128 512.497 473.267 508.367 473.267H477.393V449.348H506.13C516.57 449.348 525.633 450.954 533.319 454.166C541.006 457.264 546.914 461.91 551.044 468.105C555.174 474.3 557.239 482.101 557.239 491.508V494.261C557.239 503.554 555.116 511.297 550.872 517.492C546.742 523.572 540.834 528.161 533.147 531.259C525.576 534.242 516.57 535.733 506.13 535.733H477.393ZM658.932 576V471.546H687.154V576H658.932ZM623.655 474.988V450.38H722.602V474.988H623.655ZM795.421 576V450.38H823.643V576H795.421ZM820.201 525.408V502.005H868.728V525.408H820.201ZM820.201 473.784V450.38H870.793V473.784H820.201ZM1006.67 579.27C995.314 579.27 985.391 577.319 976.901 573.419C968.527 569.404 961.586 564.184 956.079 557.759C950.573 551.22 946.443 544.165 943.69 536.593C941.051 529.022 939.732 521.737 939.732 514.739V510.953C939.732 503.152 941.108 495.466 943.862 487.894C946.73 480.208 950.974 473.267 956.596 467.072C962.217 460.877 969.215 455.944 977.59 452.273C985.964 448.488 995.658 446.595 1006.67 446.595C1017.68 446.595 1027.38 448.488 1035.75 452.273C1044.13 455.944 1051.13 460.877 1056.75 467.072C1062.37 473.267 1066.61 480.208 1069.48 487.894C1072.35 495.466 1073.78 503.152 1073.78 510.953V514.739C1073.78 521.737 1072.41 529.022 1069.65 536.593C1066.9 544.165 1062.77 551.22 1057.26 557.759C1051.76 564.184 1044.76 569.404 1036.27 573.419C1027.89 577.319 1018.03 579.27 1006.67 579.27ZM1006.67 552.941C1012.64 552.941 1017.97 551.909 1022.68 549.844C1027.49 547.779 1031.57 544.911 1034.89 541.24C1038.33 537.568 1040.92 533.324 1042.64 528.505C1044.36 523.687 1045.22 518.525 1045.22 513.018C1045.22 507.167 1044.3 501.833 1042.46 497.015C1040.74 492.082 1038.16 487.837 1034.72 484.28C1031.39 480.609 1027.38 477.799 1022.68 475.848C1017.97 473.898 1012.64 472.923 1006.67 472.923C1000.71 472.923 995.371 473.898 990.668 475.848C985.964 477.799 981.892 480.609 978.45 484.28C975.123 487.837 972.599 492.082 970.879 497.015C969.158 501.833 968.297 507.167 968.297 513.018C968.297 518.525 969.158 523.687 970.879 528.505C972.599 533.324 975.123 537.568 978.45 541.24C981.892 544.911 985.964 547.779 990.668 549.844C995.371 551.909 1000.71 552.941 1006.67 552.941ZM1150.23 576V450.38H1178.45V576H1150.23ZM1175.01 576V551.22H1227.67V576H1175.01ZM1301.6 576V450.38H1329.82V576H1301.6ZM1473.68 579.27C1462.33 579.27 1452.4 577.319 1443.91 573.419C1435.54 569.404 1428.6 564.184 1423.09 557.759C1417.59 551.22 1413.46 544.165 1410.7 536.593C1408.06 529.022 1406.75 521.737 1406.75 514.739V510.953C1406.75 503.152 1408.12 495.466 1410.88 487.894C1413.74 480.208 1417.99 473.267 1423.61 467.072C1429.23 460.877 1436.23 455.944 1444.6 452.273C1452.98 448.488 1462.67 446.595 1473.68 446.595C1484.7 446.595 1494.39 448.488 1502.77 452.273C1511.14 455.944 1518.14 460.877 1523.76 467.072C1529.38 473.267 1533.63 480.208 1536.49 487.894C1539.36 495.466 1540.8 503.152 1540.8 510.953V514.739C1540.8 521.737 1539.42 529.022 1536.67 536.593C1533.91 544.165 1529.78 551.22 1524.28 557.759C1518.77 564.184 1511.77 569.404 1503.28 573.419C1494.91 577.319 1485.04 579.27 1473.68 579.27ZM1473.68 552.941C1479.65 552.941 1484.99 551.909 1489.69 549.844C1494.51 547.779 1498.58 544.911 1501.91 541.24C1505.35 537.568 1507.93 533.324 1509.65 528.505C1511.37 523.687 1512.23 518.525 1512.23 513.018C1512.23 507.167 1511.31 501.833 1509.48 497.015C1507.76 492.082 1505.18 487.837 1501.73 484.28C1498.41 480.609 1494.39 477.799 1489.69 475.848C1484.99 473.898 1479.65 472.923 1473.68 472.923C1467.72 472.923 1462.38 473.898 1457.68 475.848C1452.98 477.799 1448.91 480.609 1445.46 484.28C1442.14 487.837 1439.61 492.082 1437.89 497.015C1436.17 501.833 1435.31 507.167 1435.31 513.018C1435.31 518.525 1436.17 523.687 1437.89 528.505C1439.61 533.324 1442.14 537.568 1445.46 541.24C1448.91 544.911 1452.98 547.779 1457.68 549.844C1462.38 551.909 1467.72 552.941 1473.68 552.941Z" fill="white"/>
<path fill-rule="evenodd" clip-rule="evenodd" d="M451.947 330.093C442.386 318.799 425.86 317.941 415.285 328.191L403.16 339.944L397.784 333.828L409.909 322.075C423.743 308.667 445.364 309.788 457.871 324.563L458.917 325.798C468.59 337.225 485.593 337.225 495.265 325.798C508.091 310.648 530.636 310.648 543.462 325.798C553.135 337.225 570.138 337.225 579.811 325.798C592.637 310.648 615.182 310.648 628.008 325.798C637.681 337.225 654.684 337.225 664.357 325.798C677.182 310.648 699.728 310.648 712.553 325.798C722.226 337.225 739.229 337.225 748.902 325.798C761.728 310.648 784.273 310.648 797.099 325.798C806.772 337.225 823.775 337.225 833.448 325.798C846.273 310.648 868.819 310.648 881.644 325.798C891.317 337.225 908.32 337.225 917.993 325.798C930.857 310.602 953.603 310.93 966.391 326.036C976.065 337.464 993.101 337.944 1003.1 326.987L1011.89 317.361L1017.61 323.12L1008.82 332.746C995.547 347.293 973.143 346.539 960.467 331.565C950.755 320.093 933.552 319.946 923.917 331.328C911.091 346.479 888.546 346.479 875.72 331.328C866.047 319.901 849.044 319.901 839.372 331.328C826.546 346.479 804.001 346.479 791.175 331.328C781.502 319.901 764.499 319.901 754.826 331.328C742 346.479 719.455 346.479 706.629 331.328C696.956 319.901 679.953 319.901 670.281 331.328C657.455 346.479 634.91 346.479 622.084 331.328C612.411 319.901 595.408 319.901 585.735 331.328C572.909 346.479 550.364 346.479 537.538 331.328C527.865 319.901 510.862 319.901 501.19 331.328C488.364 346.479 465.819 346.479 452.993 331.328L451.947 330.093Z" fill="white" stroke="white" stroke-width="14.3401"/>
</g>
<defs>
<clipPath id="clip0_310_6393">
<rect width="1624" height="1020" fill="white"/>
</clipPath>
</defs>
</svg>
